# xmcd
#
# Track frame offsets:
#	150
#	40815
#	77700
#	92375
#	108732
#	127862
#	142777
#	161700
#	196582
#	215632
#	233667
#	267710
#
# Disc length: 3879 seconds
#
# Revision: 12
# Processed by: cddbd v1.5.2PL0 Copyright (c) Steve Scherf et al.
# Submitted via: EasyCDDAExtractor 12.0.7.1
#
DISCID=9b0f250c
DTITLE=Bach - Violin Concertos (English Chamber Orchestra feat. conductor: Dan
DTITLE=iel Barenboim, violin: Itzhak Perlman, Pinchas Zukerman)
DYEAR=2001
DGENRE=
TTITLE0=Violin Concerto in E major, BWV 1042 (1) Allegro
TTITLE1=Violin Concerto in E major, BWV 1042 (2) Adagio
TTITLE2=Violin Concerto in E major, BWV 1042 (3) Allegro assai
TTITLE3=Violin Concerto in G minor, BWV 1056 (1) (Allegro)
TTITLE4=Violin Concerto in G minor, BWV 1056 (2) Largo
TTITLE5=Violin Concerto in G minor, BWV 1056 (3) Presto
TTITLE6=Violin Concerto in A minor, BWV 1041 (1) (Allegro)
TTITLE7=Violin Concerto in A minor, BWV 1041 (2) Andante
TTITLE8=Violin Concerto in A minor, BWV 1041 (3) Allegro assai
TTITLE9=Concerto for 2 Violins and Orchestra in D minor, BWV 1043 (1) Vivace
TTITLE10=Concerto for 2 Violins and Orchestra in D minor, BWV 1043 (2) Largo m
TTITLE10=a non tanto
TTITLE11=Concerto for 2 Violins and Orchestra in D minor, BWV 1043 (3) Allegro
EXTD=Itzhak Perlman, violin\nPinchas Zikerman, violin (tracks 10-12]\nEnglish 
EXTD=Chamber Orchestra\nDaniel Barenboim, conductor\n©1972 and ©1975 EMI Records
EXTD=EMI Records Ltd.\nThis compilation and digital remastering (C) 1986 EMI 
EXTD=Records Ltd.\nCD (C) 2001 EMI Records Ltd.\n
EXTT0=
EXTT1=
EXTT2=
EXTT3=
EXTT4=
EXTT5=
EXTT6=
EXTT7=
EXTT8=
EXTT9=
EXTT10=
EXTT11=
PLAYORDER=
